<svg viewBox="0 0 1100 420" xmlns="http://www.w3.org/2000/svg" role="img">
<style>
  .grid{stroke:currentColor;opacity:.12}
  .ax{fill:currentColor;opacity:.55;font:11px system-ui,sans-serif}
  .l1{fill:none;stroke:#16a34a;stroke-width:2.5}
  .d1{fill:#16a34a}
  .lg{fill:currentColor;font:13px system-ui,sans-serif}
</style>
<line x1="64" y1="356.0" x2="1036" y2="356.0" class="grid"/><text x="54" y="360.0" class="ax" text-anchor="end">0</text><line x1="64" y1="326.8" x2="1036" y2="326.8" class="grid"/><text x="54" y="330.8" class="ax" text-anchor="end">30</text><line x1="64" y1="297.6" x2="1036" y2="297.6" class="grid"/><text x="54" y="301.6" class="ax" text-anchor="end">60</text><line x1="64" y1="268.4" x2="1036" y2="268.4" class="grid"/><text x="54" y="272.4" class="ax" text-anchor="end">90</text><line x1="64" y1="239.2" x2="1036" y2="239.2" class="grid"/><text x="54" y="243.2" class="ax" text-anchor="end">120</text><line x1="64" y1="210.0" x2="1036" y2="210.0" class="grid"/><text x="54" y="214.0" class="ax" text-anchor="end">150</text><line x1="64" y1="180.8" x2="1036" y2="180.8" class="grid"/><text x="54" y="184.8" class="ax" text-anchor="end">180</text><line x1="64" y1="151.6" x2="1036" y2="151.6" class="grid"/><text x="54" y="155.6" class="ax" text-anchor="end">210</text><line x1="64" y1="122.4" x2="1036" y2="122.4" class="grid"/><text x="54" y="126.4" class="ax" text-anchor="end">240</text><line x1="64" y1="93.2" x2="1036" y2="93.2" class="grid"/><text x="54" y="97.2" class="ax" text-anchor="end">270</text><line x1="64" y1="64.0" x2="1036" y2="64.0" class="grid"/><text x="54" y="68.0" class="ax" text-anchor="end">300</text>
<path d="M64.0,149.7 L161.2,137.0 L258.4,135.1 L355.6,141.9 L452.8,116.6 L550.0,104.9 L647.2,98.1 L744.4,95.1 L841.6,94.2 L938.8,81.5 L1036.0,80.5" class="l1"/>
<circle cx="64.0" cy="149.7" r="3.5" class="d1"><title>da04384  perf: emit in parallel, and split the compile gate into two tiers
212 clean module(s)</title></circle><circle cx="161.2" cy="137.0" r="3.5" class="d1"><title>edb587b  selector: choose a type's register method by CONTENT, not by its name
225 clean module(s)</title></circle><circle cx="258.4" cy="135.1" r="3.5" class="d1"><title>cca5b64  fix declaring-type resolution for static calls
227 clean module(s)</title></circle><circle cx="355.6" cy="141.9" r="3.5" class="d1"><title>5953b50  rules: map Logger severity-level wrappers and IGPIOExtensions Set/Unse
220 clean module(s)</title></circle><circle cx="452.8" cy="116.6" r="3.5" class="d1"><title>1170b56  emit: convert single-bit callback params to bool at use sites (issue #
246 clean module(s)</title></circle><circle cx="550.0" cy="104.9" r="3.5" class="d1"><title>6ba8704  fix: resolve register-offset enum reference at peer-method call sites
258 clean module(s)</title></circle><circle cx="647.2" cy="98.1" r="3.5" class="d1"><title>99d1b73  emit: rename a nested enum named State or Fields to avoid colliding
265 clean module(s)</title></circle><circle cx="744.4" cy="95.1" r="3.5" class="d1"><title>d16ff30  emit: append `.to_string()` to a string-literal return where the metho
268 clean module(s)</title></circle><circle cx="841.6" cy="94.2" r="3.5" class="d1"><title>6c4a8e0  core: escape a C# identifier that collides with a Rust keyword
269 clean module(s)</title></circle><circle cx="938.8" cy="81.5" r="3.5" class="d1"><title>3e2249c  lang: route compound assignment on a property target through get+set (
282 clean module(s)</title></circle><circle cx="1036.0" cy="80.5" r="3.5" class="d1"><title>73624b8  Fix: emit C# int-indexer reads (`x[i]`) as Rust indexing, not `.this[i
283 clean module(s)</title></circle>
<circle cx="64" cy="24" r="5" fill="#16a34a"/>
<text x="78" y="28" class="lg">clean modules -- a ratchet, never falls (peak 283)</text>
<text x="64" y="402" class="ax">oldest commit touching the gate</text>
<text x="1036" y="402" class="ax" text-anchor="end">newest</text>
</svg>